<svg xmlns="http://www.w3.org/2000/svg" viewBox="0 0 64 64">
  <defs>
    <linearGradient id="g" x1="0" x2="1" y1="0" y2="1">
      <stop offset="0%" stop-color="#2563eb"/>
      <stop offset="100%" stop-color="#1d4ed8"/>
    </linearGradient>
  </defs>

  <!-- Background -->
  <rect width="64" height="64" rx="14" fill="url(#g)"/>

  <!-- Map pin -->
  <path d="M32 10c-9 0-16 7-16 16 0 12 16 28 16 28s16-16 16-28c0-9-7-16-16-16z"
        fill="white" opacity="0.95"/>

  <!-- Inner circle -->
  <circle cx="32" cy="26" r="8" fill="#2563eb"/>

  <!-- Gold star (centered) -->
  <polygon points="32,20 34.5,26 41,26 35.5,30 37.5,36 32,32.5 26.5,36 28.5,30 23,26 29.5,26"
           fill="#facc15"/>

  <!-- Small highlight for depth -->
  <polygon points="32,20 33.5,24 37,24 34,26 35,30 32,28.5"
           fill="white" opacity="0.25"/>
</svg>